<svg width="800" height="600" viewBox="0 0 800 600" xmlns="http://www.w3.org/2000/svg">
  <defs>
    <linearGradient id="nightSkyGradient" x1="0%" y1="0%" x2="0%" y2="100%">
      <stop offset="0%" stop-color="#020024" />
      <stop offset="50%" stop-color="#090979" />
      <stop offset="100%" stop-color="#1e3c72" />
    </linearGradient>
    <radialGradient id="moonGlow" cx="80%" cy="30%" r="20%" fx="80%" fy="30%">
      <stop offset="0%" stop-color="#ffffff" stop-opacity="0.7" />
      <stop offset="100%" stop-color="#ffffff" stop-opacity="0" />
    </radialGradient>
    <filter id="starGlow" x="-50%" y="-50%" width="200%" height="200%">
      <feGaussianBlur stdDeviation="1" />
    </filter>
  </defs>
  
  <!-- Night Sky Background -->
  <rect width="800" height="600" fill="url(#nightSkyGradient)" />
  
  <!-- Moon Glow -->
  <circle cx="650" cy="150" r="120" fill="url(#moonGlow)" />
  
  <!-- Moon -->
  <circle cx="650" cy="150" r="40" fill="#ffffff" />
  <circle cx="630" cy="130" r="10" fill="#e1e1e1" />
  <circle cx="670" cy="160" r="8" fill="#e1e1e1" />
  <circle cx="650" cy="170" r="12" fill="#e1e1e1" />
  
  <!-- Stars -->
  <g>
    <!-- Randomly placed stars with different sizes -->
    <circle cx="100" cy="80" r="1.5" fill="white" filter="url(#starGlow)" />
    <circle cx="200" cy="150" r="1" fill="white" filter="url(#starGlow)" />
    <circle cx="300" cy="100" r="1.8" fill="white" filter="url(#starGlow)" />
    <circle cx="400" cy="200" r="1.2" fill="white" filter="url(#starGlow)" />
    <circle cx="500" cy="120" r="1" fill="white" filter="url(#starGlow)" />
    <circle cx="150" cy="250" r="1.5" fill="white" filter="url(#starGlow)" />
    <circle cx="250" cy="180" r="1" fill="white" filter="url(#starGlow)" />
    <circle cx="350" cy="220" r="1.3" fill="white" filter="url(#starGlow)" />
    <circle cx="450" cy="90" r="1.7" fill="white" filter="url(#starGlow)" />
    <circle cx="550" cy="170" r="1.2" fill="white" filter="url(#starGlow)" />
    <circle cx="600" cy="250" r="1" fill="white" filter="url(#starGlow)" />
    <circle cx="700" cy="220" r="1.5" fill="white" filter="url(#starGlow)" />
    <circle cx="50" cy="300" r="1.1" fill="white" filter="url(#starGlow)" />
    <circle cx="150" cy="350" r="1.3" fill="white" filter="url(#starGlow)" />
    <circle cx="250" cy="280" r="1" fill="white" filter="url(#starGlow)" />
    <circle cx="350" cy="320" r="1.6" fill="white" filter="url(#starGlow)" />
    <circle cx="450" cy="270" r="1.2" fill="white" filter="url(#starGlow)" />
    <circle cx="550" cy="310" r="1" fill="white" filter="url(#starGlow)" />
    <!-- More stars -->
    <circle cx="120" cy="50" r="1" fill="white" filter="url(#starGlow)" />
    <circle cx="220" cy="120" r="1.4" fill="white" filter="url(#starGlow)" />
    <circle cx="320" cy="70" r="1.1" fill="white" filter="url(#starGlow)" />
    <circle cx="420" cy="170" r="1" fill="white" filter="url(#starGlow)" />
    <circle cx="520" cy="90" r="1.3" fill="white" filter="url(#starGlow)" />
    <circle cx="620" cy="220" r="1.2" fill="white" filter="url(#starGlow)" />
    <circle cx="720" cy="140" r="1" fill="white" filter="url(#starGlow)" />
    <circle cx="80" cy="230" r="1.5" fill="white" filter="url(#starGlow)" />
    <circle cx="180" cy="160" r="1.2" fill="white" filter="url(#starGlow)" />
    <circle cx="280" cy="200" r="1" fill="white" filter="url(#starGlow)" />
    <circle cx="380" cy="130" r="1.4" fill="white" filter="url(#starGlow)" />
    <circle cx="480" cy="210" r="1.1" fill="white" filter="url(#starGlow)" />
    <circle cx="580" cy="150" r="1.3" fill="white" filter="url(#starGlow)" />
    <circle cx="680" cy="190" r="1" fill="white" filter="url(#starGlow)" />
  </g>
  
  <!-- Mountain silhouettes -->
  <path d="M0,600 L0,450 Q100,380 200,450 Q300,400 400,450 Q500,370 600,430 Q700,390 800,450 L800,600 Z" 
        fill="#0d1321" />
        
  <!-- Closest mountain silhouette -->
  <path d="M0,600 L0,500 Q200,450 400,500 Q600,450 800,500 L800,600 Z"
        fill="#0a0e17" />
</svg>