<svg width="800" height="600" viewBox="0 0 800 600" xmlns="http://www.w3.org/2000/svg">
  <defs>
    <linearGradient id="springSkyGradient" x1="0%" y1="0%" x2="0%" y2="100%">
      <stop offset="0%" stop-color="#c2e9fb" />
      <stop offset="100%" stop-color="#a1c4fd" />
    </linearGradient>
    <linearGradient id="meadowGradient" x1="0%" y1="0%" x2="0%" y2="100%">
      <stop offset="0%" stop-color="#9be15d" />
      <stop offset="100%" stop-color="#00e3ae" />
    </linearGradient>
    <linearGradient id="hillGradient" x1="0%" y1="0%" x2="0%" y2="100%">
      <stop offset="0%" stop-color="#96fbc4" />
      <stop offset="100%" stop-color="#f9f586" />
    </linearGradient>
    <filter id="flowerGlow" x="-50%" y="-50%" width="200%" height="200%">
      <feGaussianBlur stdDeviation="1" />
    </filter>
  </defs>
  
  <!-- Spring Sky Background -->
  <rect width="800" height="600" fill="url(#springSkyGradient)" />
  
  <!-- Distant Hills -->
  <path d="M0,600 L0,370 Q100,330 200,360 Q300,320 400,350 Q500,310 600,360 Q700,320 800,370 L800,600 Z" 
        fill="url(#hillGradient)" opacity="0.8" />
  
  <!-- Meadow -->
  <path d="M0,600 L0,450 Q200,430 400,460 Q600,430 800,450 L800,600 Z"
        fill="url(#meadowGradient)" />
        
  <!-- Clouds -->
  <g opacity="0.8">
    <ellipse cx="200" cy="150" rx="120" ry="40" fill="white" />
    <ellipse cx="180" cy="130" rx="50" ry="30" fill="white" />
    <ellipse cx="250" cy="130" rx="60" ry="35" fill="white" />
    
    <ellipse cx="600" cy="120" rx="100" ry="30" fill="white" />
    <ellipse cx="550" cy="110" rx="40" ry="25" fill="white" />
    <ellipse cx="650" cy="100" rx="50" ry="20" fill="white" />
    
    <ellipse cx="400" cy="80" rx="70" ry="30" fill="white" />
    <ellipse cx="370" cy="65" rx="30" ry="20" fill="white" />
    <ellipse cx="440" cy="60" rx="40" ry="25" fill="white" />
  </g>
  
  <!-- Flowers in the meadow (small colorful dots) -->
  <g>
    <!-- Pink flowers -->
    <circle cx="100" cy="500" r="3" fill="#ff80ab" filter="url(#flowerGlow)" />
    <circle cx="150" cy="520" r="2" fill="#ff80ab" filter="url(#flowerGlow)" />
    <circle cx="210" cy="510" r="3" fill="#ff80ab" filter="url(#flowerGlow)" />
    <circle cx="270" cy="530" r="2" fill="#ff80ab" filter="url(#flowerGlow)" />
    <circle cx="320" cy="515" r="3" fill="#ff80ab" filter="url(#flowerGlow)" />
    <circle cx="380" cy="525" r="2" fill="#ff80ab" filter="url(#flowerGlow)" />
    <circle cx="430" cy="505" r="3" fill="#ff80ab" filter="url(#flowerGlow)" />
    <circle cx="490" cy="520" r="2" fill="#ff80ab" filter="url(#flowerGlow)" />
    <circle cx="540" cy="510" r="3" fill="#ff80ab" filter="url(#flowerGlow)" />
    <circle cx="600" cy="530" r="2" fill="#ff80ab" filter="url(#flowerGlow)" />
    <circle cx="650" cy="515" r="3" fill="#ff80ab" filter="url(#flowerGlow)" />
    <circle cx="710" cy="525" r="2" fill="#ff80ab" filter="url(#flowerGlow)" />
    
    <!-- Yellow flowers -->
    <circle cx="130" cy="510" r="2" fill="#ffea00" filter="url(#flowerGlow)" />
    <circle cx="180" cy="500" r="3" fill="#ffea00" filter="url(#flowerGlow)" />
    <circle cx="240" cy="520" r="2" fill="#ffea00" filter="url(#flowerGlow)" />
    <circle cx="300" cy="505" r="3" fill="#ffea00" filter="url(#flowerGlow)" />
    <circle cx="350" cy="525" r="2" fill="#ffea00" filter="url(#flowerGlow)" />
    <circle cx="410" cy="515" r="3" fill="#ffea00" filter="url(#flowerGlow)" />
    <circle cx="460" cy="530" r="2" fill="#ffea00" filter="url(#flowerGlow)" />
    <circle cx="520" cy="500" r="3" fill="#ffea00" filter="url(#flowerGlow)" />
    <circle cx="570" cy="520" r="2" fill="#ffea00" filter="url(#flowerGlow)" />
    <circle cx="630" cy="510" r="3" fill="#ffea00" filter="url(#flowerGlow)" />
    <circle cx="680" cy="530" r="2" fill="#ffea00" filter="url(#flowerGlow)" />
    <circle cx="740" cy="505" r="3" fill="#ffea00" filter="url(#flowerGlow)" />
    
    <!-- Purple flowers -->
    <circle cx="120" cy="520" r="2" fill="#b388ff" filter="url(#flowerGlow)" />
    <circle cx="170" cy="510" r="3" fill="#b388ff" filter="url(#flowerGlow)" />
    <circle cx="230" cy="530" r="2" fill="#b388ff" filter="url(#flowerGlow)" />
    <circle cx="290" cy="505" r="3" fill="#b388ff" filter="url(#flowerGlow)" />
    <circle cx="340" cy="515" r="2" fill="#b388ff" filter="url(#flowerGlow)" />
    <circle cx="400" cy="525" r="3" fill="#b388ff" filter="url(#flowerGlow)" />
    <circle cx="450" cy="510" r="2" fill="#b388ff" filter="url(#flowerGlow)" />
    <circle cx="510" cy="520" r="3" fill="#b388ff" filter="url(#flowerGlow)" />
    <circle cx="560" cy="505" r="2" fill="#b388ff" filter="url(#flowerGlow)" />
    <circle cx="620" cy="525" r="3" fill="#b388ff" filter="url(#flowerGlow)" />
    <circle cx="670" cy="515" r="2" fill="#b388ff" filter="url(#flowerGlow)" />
    <circle cx="730" cy="530" r="3" fill="#b388ff" filter="url(#flowerGlow)" />
  </g>
  
  <!-- Butterflies (simple shapes) -->
  <g>
    <path d="M300,200 Q310,190 320,200 Q310,210 300,200 Z" fill="#ffb3ff" opacity="0.8" />
    <path d="M300,200 Q310,190 320,200 Q310,210 300,200 Z" transform="translate(200, 50) scale(0.8)" fill="#ffe6f2" opacity="0.7" />
    <path d="M300,200 Q310,190 320,200 Q310,210 300,200 Z" transform="translate(100, -20) scale(1.2)" fill="#ffccff" opacity="0.9" />
  </g>
  
  <!-- Sun rays from corner -->
  <g opacity="0.2">
    <path d="M720,80 L740,50" stroke="#fff176" stroke-width="2" />
    <path d="M700,90 L730,30" stroke="#fff176" stroke-width="3" />
    <path d="M680,60 L710,10" stroke="#fff176" stroke-width="2" />
    <path d="M750,70 L780,20" stroke="#fff176" stroke-width="3" />
  </g>
</svg>