<svg width="800" height="600" viewBox="0 0 800 600" xmlns="http://www.w3.org/2000/svg">
  <defs>
    <linearGradient id="winterSkyGradient" x1="0%" y1="0%" x2="0%" y2="100%">
      <stop offset="0%" stop-color="#b3e0ff" />
      <stop offset="100%" stop-color="#e6f7ff" />
    </linearGradient>
    <radialGradient id="sunGlow" cx="20%" cy="30%" r="30%" fx="20%" fy="30%">
      <stop offset="0%" stop-color="#ffffff" stop-opacity="0.7" />
      <stop offset="100%" stop-color="#ffffff" stop-opacity="0" />
    </radialGradient>
    <linearGradient id="snowMountainGradient" x1="0%" y1="0%" x2="0%" y2="100%">
      <stop offset="0%" stop-color="#ffffff" />
      <stop offset="100%" stop-color="#cce0ff" />
    </linearGradient>
    <filter id="snowFlake" x="-50%" y="-50%" width="200%" height="200%">
      <feGaussianBlur stdDeviation="0.5" />
    </filter>
  </defs>
  
  <!-- Winter Sky Background -->
  <rect width="800" height="600" fill="url(#winterSkyGradient)" />
  
  <!-- Gentle Sun Glow -->
  <circle cx="150" cy="150" r="80" fill="url(#sunGlow)" />
  
  <!-- Sun - pale winter sun -->
  <circle cx="150" cy="150" r="30" fill="#fff5e6" />
  
  <!-- Snow Mountains -->
  <path d="M0,600 L0,350 Q100,250 200,300 Q300,220 400,290 Q500,250 600,310 Q700,260 800,350 L800,600 Z" 
        fill="url(#snowMountainGradient)" />
  
  <!-- Middle Snow Mountains -->
  <path d="M0,600 L0,400 Q100,350 200,380 Q300,320 400,370 Q500,340 600,380 Q700,350 800,400 L800,600 Z" 
        fill="#f0f8ff" />
  
  <!-- Foreground Snow Hills -->
  <path d="M0,600 L0,450 Q200,420 400,450 Q600,420 800,450 L800,600 Z"
        fill="#ffffff" />
        
  <!-- Snowflakes -->
  <g>
    <!-- Randomly distributed snowflakes with different sizes -->
    <circle cx="120" cy="100" r="1.2" fill="white" filter="url(#snowFlake)" />
    <circle cx="220" cy="150" r="1" fill="white" filter="url(#snowFlake)" />
    <circle cx="320" cy="120" r="1.5" fill="white" filter="url(#snowFlake)" />
    <circle cx="420" cy="180" r="1.1" fill="white" filter="url(#snowFlake)" />
    <circle cx="520" cy="130" r="1.3" fill="white" filter="url(#snowFlake)" />
    <circle cx="620" cy="170" r="1" fill="white" filter="url(#snowFlake)" />
    <circle cx="720" cy="110" r="1.4" fill="white" filter="url(#snowFlake)" />
    <circle cx="170" cy="220" r="1.2" fill="white" filter="url(#snowFlake)" />
    <circle cx="270" cy="190" r="1" fill="white" filter="url(#snowFlake)" />
    <circle cx="370" cy="240" r="1.5" fill="white" filter="url(#snowFlake)" />
    <circle cx="470" cy="200" r="1.1" fill="white" filter="url(#snowFlake)" />
    <circle cx="570" cy="230" r="1.3" fill="white" filter="url(#snowFlake)" />
    <circle cx="670" cy="210" r="1" fill="white" filter="url(#snowFlake)" />
    <!-- More snowflakes -->
    <circle cx="140" cy="280" r="1.1" fill="white" filter="url(#snowFlake)" />
    <circle cx="240" cy="260" r="1.4" fill="white" filter="url(#snowFlake)" />
    <circle cx="340" cy="300" r="1" fill="white" filter="url(#snowFlake)" />
    <circle cx="440" cy="270" r="1.2" fill="white" filter="url(#snowFlake)" />
    <circle cx="540" cy="290" r="1.3" fill="white" filter="url(#snowFlake)" />
    <circle cx="640" cy="310" r="1.1" fill="white" filter="url(#snowFlake)" />
    <circle cx="740" cy="250" r="1" fill="white" filter="url(#snowFlake)" />
    <circle cx="190" cy="340" r="1.4" fill="white" filter="url(#snowFlake)" />
    <circle cx="290" cy="320" r="1.2" fill="white" filter="url(#snowFlake)" />
    <circle cx="390" cy="350" r="1" fill="white" filter="url(#snowFlake)" />
    <circle cx="490" cy="330" r="1.3" fill="white" filter="url(#snowFlake)" />
    <circle cx="590" cy="360" r="1.1" fill="white" filter="url(#snowFlake)" />
    <circle cx="690" cy="370" r="1" fill="white" filter="url(#snowFlake)" />
    <circle cx="140" cy="400" r="1.2" fill="white" filter="url(#snowFlake)" />
    <circle cx="240" cy="420" r="1" fill="white" filter="url(#snowFlake)" />
    <circle cx="340" cy="390" r="1.4" fill="white" filter="url(#snowFlake)" />
  </g>
  
  <!-- Snow covered trees (distant) -->
  <g>
    <path d="M300,450 L310,430 L320,450 Z" fill="#e6f2ff" />
    <path d="M320,455 L330,435 L340,455 Z" fill="#e6f2ff" />
    <path d="M350,450 L360,425 L370,450 Z" fill="#e6f2ff" />
    <path d="M380,460 L390,430 L400,460 Z" fill="#e6f2ff" />
    <path d="M420,455 L430,425 L440,455 Z" fill="#e6f2ff" />
    <path d="M460,458 L470,430 L480,458 Z" fill="#e6f2ff" />
    <path d="M500,460 L510,430 L520,460 Z" fill="#e6f2ff" />
  </g>
</svg>