<svg xmlns="http://www.w3.org/2000/svg" width="64" height="64" viewBox="0 0 64 64" fill="none">
  <rect width="64" height="64" rx="12" fill="#2563EB"/>
  <path d="M15 17C15 15.8954 15.8954 15 17 15H47C48.1046 15 49 15.8954 49 17V47C49 48.1046 48.1046 49 47 49H17C15.8954 49 15 48.1046 15 47V17Z" fill="white"/>
  <path d="M15 28H49V36H15V28Z" fill="#93C5FD"/>
  <path d="M22 20C22 19.4477 22.4477 19 23 19H41C41.5523 19 42 19.4477 42 20V24C42 24.5523 41.5523 25 41 25H23C22.4477 25 22 24.5523 22 24V20Z" fill="#93C5FD"/>
  <path d="M22 40C22 39.4477 22.4477 39 23 39H41C41.5523 39 42 39.4477 42 40V44C42 44.5523 41.5523 45 41 45H23C22.4477 45 22 44.5523 22 44V40Z" fill="#93C5FD"/>
  <path d="M22 32C22 31.4477 22.4477 31 23 31H30C30.5523 31 31 31.4477 31 32V33C31 33.5523 30.5523 34 30 34H23C22.4477 34 22 33.5523 22 33V32Z" fill="#2563EB"/>
  <path d="M33 32C33 31.4477 33.4477 31 34 31H41C41.5523 31 42 31.4477 42 32V33C42 33.5523 41.5523 34 41 34H34C33.4477 34 33 33.5523 33 33V32Z" fill="#2563EB"/>
  <path d="M24 22L26 24L30 20" stroke="#2563EB" stroke-width="2" stroke-linecap="round" stroke-linejoin="round"/>
  <path d="M24 42L26 44L30 40" stroke="#2563EB" stroke-width="2" stroke-linecap="round" stroke-linejoin="round"/>
</svg>